:SAMPLES-PER-SECOND 30
:FULLY-SPECIFIED
:DEGREES
294
root  -17.377 38.3006 -0.992985 45.5482 78.9682 52.6291
RightUpLeg  3.13399 4.46487 -12.2127
RightLeg  58.3917 2.8724 4.54543
RightFoot  8.92911 -1.24551 7.05121
RightToes  -4.65663e-010 0 -3.6325e-017
Spine  6.95872 2.32226 -4.26635
Spine1  5.67377 3.96735 -10.5187
HEad  -15.1642 0.969405 -3.922
LeftShoulder1  -0.763423 5.37756 -34.5592
LeftArm  -1.58391 2.30466 -37.2638
LeftForeArm  35.7571 -7.28287 -9.67221
LeftHand  -0.167441 9.76808 -2.86437
RightShoulder  -0.896992 -5.97669 29.6862
RightArm  15.359 -9.23273 48.8697
RightForeArm  24.1594 9.28128 7.28404
RightHand  0.0741304 1.66199 1.06499
LeftUpLeg  -12.3813 5.20781 -10.7683
LeftLeg  21.7755 3.84642 1.89281
LeftFoot  -2.42434 -0.389998 5.19517
LeftToes  8.74931e-010 -1.05764e-010 1.2659e-011
295
root  -16.2625 38.4717 -1.09227 44.4829 79.0435 52.0188
RightUpLeg  -1.95619 4.92943 -12.3546
RightLeg  64.5223 2.43005 4.98515
RightFoot  4.53588 -1.12329 8.24794
RightToes  -4.65663e-010 0 -3.6325e-017
Spine  7.32831 1.90842 -5.55091
Spine1  5.94311 3.00668 -9.16041
HEad  -14.8608 1.96256 -4.83061
LeftShoulder1  -0.781553 5.42566 -34.4794
LeftArm  0.447713 -0.198706 -38.4797
LeftForeArm  33.1194 -9.29191 -9.5721
LeftHand  -0.113243 9.2973 -1.78363
RightShoulder  -0.886706 -5.96466 29.4434
RightArm  18.2152 -9.91312 47.7979
RightForeArm  23.7619 10.939 7.40446
RightHand  0.08121 1.41311 1.26498
LeftUpLeg  -9.6392 5.34138 -10.6667
LeftLeg  21.1731 4.03051 1.57901
LeftFoot  -4.15848 -0.307244 5.29233
LeftToes  8.74931e-010 -1.05764e-010 1.2659e-011
296
root  -15.1344 38.6674 -1.17664 44.2289 79.7525 52.1772
RightUpLeg  -6.66436 4.74012 -11.9224
RightLeg  67.3132 2.20635 5.12759
RightFoot  3.73155 -1.02909 7.96238
RightToes  -4.65663e-010 0 -3.6325e-017
Spine  7.72718 1.25392 -6.14632
Spine1  5.87204 1.96472 -8.04027
HEad  -14.5623 2.79908 -4.79016
LeftShoulder1  -0.756298 5.39602 -33.8002
LeftArm  3.97966 -2.13789 -40.0273
LeftForeArm  28.8369 -12.2773 -8.89799
LeftHand  -0.0772676 9.34183 -0.72394
RightShoulder  -0.880127 -5.92404 29.7676
RightArm  19.968 -10.9235 46.2693
RightForeArm  22.0637 13.1033 6.78714
RightHand  0.0861152 1.46052 1.51903
LeftUpLeg  -6.6589 4.7507 -10.2485
LeftLeg  20.131 4.28722 1.30464
LeftFoot  -5.65675 -0.232425 5.36152
LeftToes  8.74931e-010 -1.05764e-010 1.2659e-011
297
root  -14.0293 38.7987 -1.22374 45.318 80.7102 53.3828
RightUpLeg  -11.1993 3.97209 -11.2891
RightLeg  67.4928 1.84302 4.23515
RightFoot  2.90111 -0.911367 7.43418
RightToes  -4.65663e-010 0 -3.6325e-017
Spine  7.66075 0.68644 -7.27687
Spine1  6.18079 0.823592 -6.04681
HEad  -14.0265 3.69406 -4.66824
LeftShoulder1  -0.782725 5.46464 -33.7463
LeftArm  8.81204 -4.32513 -41.0944
LeftForeArm  23.2398 -15.776 -7.52065
LeftHand  -0.0593212 8.44421 -0.48009
RightShoulder  -0.866296 -5.92634 29.1639
RightArm  19.8095 -11.7071 45.6048
RightForeArm  17.3039 14.6304 6.14139
RightHand  -0.0304058 4.1724 -0.695321
LeftUpLeg  -4.26954 4.53982 -9.7384
LeftLeg  19.5579 3.89605 0.959423
LeftFoot  -7.22364 -0.150211 5.38771
LeftToes  8.74931e-010 -1.05764e-010 1.2659e-011
298
root  -12.9086 38.9249 -1.26714 44.5188 81.5767 52.629
RightUpLeg  -15.0318 3.43627 -10.3595
RightLeg  64.5418 1.76336 3.46159
RightFoot  1.6352 -0.699965 6.24468
RightToes  -4.65663e-010 0 -3.6325e-017
Spine  7.65817 0.247187 -7.64497
Spine1  6.12164 0.0760057 -4.65093
HEad  -13.5131 3.64855 -4.5026
LeftShoulder1  -0.762071 5.42021 -33.5934
LeftArm  12.782 -6.05186 -41.9698
LeftForeArm  18.3762 -19.4618 -5.54524
LeftHand  -0.0551858 8.41863 -0.326162
RightShoulder  -0.878962 -5.96501 29.1137
RightArm  18.5594 -12.0732 44.8977
RightForeArm  16.8463 15.4375 5.55056
RightHand  0.123675 4.2827 1.19057
LeftUpLeg  -1.74619 4.9421 -8.90217
LeftLeg  18.5995 3.11393 0.430678
LeftFoot  -8.681 -0.0768424 5.5608
LeftToes  8.74931e-010 -1.05764e-010 1.2659e-011
299
root  -11.8169 38.9868 -1.31321 44.1774 82.3728 52.3923
RightUpLeg  -17.7332 2.8665 -9.51961
RightLeg  58.5932 1.90051 2.91513
RightFoot  -0.0628943 -0.606985 6.15926
RightToes  -4.65663e-010 0 -3.6325e-017
Spine  8.0644 -0.130027 -7.78195
Spine1  5.68207 -0.508833 -3.61793
HEad  -13.186 3.85258 -4.06498
LeftShoulder1  -0.738096 5.37603 -33.2602
LeftArm  15.0289 -7.64559 -42.6784
LeftForeArm  15.3712 -22.7151 -4.30948
LeftHand  -0.0314103 8.28529 0.501422
RightShoulder  -0.937557 -6.10444 29.476
RightArm  17.4434 -11.7687 44.3006
RightForeArm  16.3324 15.1768 5.45873
RightHand  0.251461 4.6936 2.58051
LeftUpLeg  0.584398 5.20795 -8.29274
LeftLeg  18.0123 2.48454 0.231169
LeftFoot  -10.1075 -0.00222769 5.87309
LeftToes  8.74931e-010 -1.05764e-010 1.2659e-011
300
root  -10.7079 39.0059 -1.32984 43.6793 83.1773 52.2
RightUpLeg  -18.9208 1.87713 -8.64223
RightLeg  49.7209 2.04921 2.25143
RightFoot  -1.54251 -0.61279 7.00565
RightToes  -4.65663e-010 0 -3.6325e-017
Spine  8.34242 -0.374015 -7.96541
Spine1  5.78047 -1.00868 -2.12275
HEad  -13.535 3.87856 -3.79967
LeftShoulder1  -0.744739 5.38757 -33.3499
LeftArm  13.9323 -9.57275 -43.0186
LeftForeArm  16.052 -25.0279 -4.47403
LeftHand  -0.0312034 7.83005 0.490999
RightShoulder  -0.890099 -5.99839 29.0936
RightArm  15.5245 -11.2438 44.6441
RightForeArm  15.4727 14.5915 5.40996
RightHand  -0.0147247 3.66875 -0.42037
LeftUpLeg  3.07099 5.60181 -7.59188
LeftLeg  17.5846 1.62747 0.105353
LeftFoot  -11.529 0.0794289 6.23502
LeftToes  8.74931e-010 -1.05764e-010 1.2659e-011
301
root  -9.5892 38.9857 -1.36928 44.243 83.7507 52.8676
RightUpLeg  -19.1911 0.90378 -8.03749
RightLeg  38.6207 2.22053 1.65129
RightFoot  -2.23885 -0.581118 7.09753
RightToes  -4.65663e-010 0 -3.6325e-017
Spine  8.38438 -0.554055 -7.19111
Spine1  5.92983 -1.01729 -1.96674
HEad  -13.6673 3.19121 -3.87188
LeftShoulder1  -0.660963 5.21397 -32.5061
LeftArm  12.842 -11.1195 -44.2052
LeftForeArm  17.0277 -26.7562 -4.84017
LeftHand  -0.00931691 8.00097 1.40952
RightShoulder  -0.938108 -6.11488 29.3579
RightArm  14.3066 -10.4935 44.7898
RightForeArm  16.7589 13.6495 5.45106
RightHand  0.0666692 3.45264 0.623329
LeftUpLeg  5.38956 5.79809 -7.20635
LeftLeg  17.0582 1.09263 0.0813559
LeftFoot  -12.9495 0.168629 6.44974
LeftToes  8.74931e-010 -1.05764e-010 1.2659e-011
302
root  -8.45483 38.9287 -1.37388 45.1613 83.8833 53.5014
RightUpLeg  -19.0688 0.0976872 -7.5892
RightLeg  26.4408 2.45547 1.15198
RightFoot  -2.60275 -0.577052 7.31136
RightToes  -4.65663e-010 0 -3.6325e-017
Spine  7.89775 -0.603334 -6.81006
Spine1  6.29423 -0.941933 -1.48865
HEad  -13.9878 2.54057 -3.70196
LeftShoulder1  -0.674461 5.25378 -32.3761
LeftArm  12.191 -12.6176 -44.823
LeftForeArm  17.9219 -27.8724 -5.04401
LeftHand  -0.0221822 6.92887 1.08965
RightShoulder  -0.903664 -6.02206 29.3014
RightArm  13.1989 -9.91083 45.3004
RightForeArm  17.9659 12.9942 5.42413
RightHand  0.0751407 3.60155 0.721345
LeftUpLeg  7.37165 6.11713 -6.98481
LeftLeg  16.3643 0.714171 -0.140782
LeftFoot  -14.2721 0.257451 6.69523
LeftToes  8.74931e-010 -1.05764e-010 1.2659e-011
303
root  -7.29845 38.8341 -1.37659 47.2104 83.6438 55.1121
RightUpLeg  -18.8494 -1.71841 -7.16671
RightLeg  14.7063 4.3762 0.757124
RightFoot  -2.9281 -0.587775 7.70404
RightToes  -4.65663e-010 0 -3.6325e-017
Spine  7.40175 -0.549248 -6.28597
Spine1  6.47052 -0.684173 -1.43092
HEad  -14.5494 2.31391 -3.87396
LeftShoulder1  -0.605889 5.0896 -32.0576
LeftArm  11.9999 -13.5028 -45.3149
LeftForeArm  18.291 -28.5826 -5.1865
LeftHand  -0.0255773 6.81072 0.860458
RightShoulder  -0.88255 -5.96782 29.2271
RightArm  12.8686 -9.64132 45.8833
RightForeArm  19.6707 12.9412 5.35454
RightHand  0.0724274 2.83009 0.812067
LeftUpLeg  9.35451 5.98465 -7.36423
LeftLeg  15.3478 0.835541 -0.124985
LeftFoot  -15.4419 0.334707 6.75336
LeftToes  8.74931e-010 -1.05764e-010 1.2659e-011
304
root  -6.11157 38.7271 -1.3725 50.4554 83.439 57.6261
RightUpLeg  -18.8224 -5.7763 -5.82415
RightLeg  4.26606 8.90563 -0.358963
RightFoot  -3.29135 -0.576764 7.87004
RightToes  -4.65663e-010 0 -3.6325e-017
Spine  6.48603 -0.520197 -5.61438
Spine1  6.93182 -0.478081 -1.34813
HEad  -14.8376 2.33871 -4.04473
LeftShoulder1  -0.677627 5.26278 -32.3708
LeftArm  12.6442 -14.4453 -45.5239
LeftForeArm  18.0261 -28.5322 -5.18961
LeftHand  -0.0218439 6.91274 1.08443
RightShoulder  -0.870744 -5.93402 29.2343
RightArm  13.4391 -9.55769 46.3693
RightForeArm  18.3445 12.9786 5.53333
RightHand  0.020217 2.93885 0.0563325
LeftUpLeg  11.2053 5.65764 -7.85431
LeftLeg  14.0214 0.979982 -0.0524198
LeftFoot  -16.4575 0.38399 6.37794
LeftToes  8.74931e-010 -1.05764e-010 1.2659e-011
305
root  -4.8712 38.5283 -1.32978 54.5887 83.4723 61.5679
RightUpLeg  -18.6338 -7.12109 -5.5269
RightLeg  -2.0998 9.20348 -0.709703
RightFoot  -4.13613 -0.584645 8.82299
RightToes  -4.65663e-010 0 -3.6325e-017
Spine  6.32418 -0.61332 -4.6544
Spine1  7.14488 -0.408772 -1.73824
HEad  -15.3768 1.87615 -4.51972
LeftShoulder1  -0.672559 5.24096 -32.5602
LeftArm  13.42 -14.6245 -45.6118
LeftForeArm  17.3968 -28.0407 -5.11184
LeftHand  -0.013611 7.30417 1.48566
RightShoulder  -0.879736 -5.95308 29.3256
RightArm  14.3104 -9.26023 46.7619
RightForeArm  18.0225 13.2643 5.65323
RightHand  0.021278 2.57015 0.109841
LeftUpLeg  13.4752 5.81005 -7.85179
LeftLeg  13.354 0.345234 -0.19247
LeftFoot  -17.9278 0.453327 5.98786
LeftToes  8.74931e-010 -1.05764e-010 1.2659e-011
